<svg width="19" height="12" viewBox="0 0 19 12" fill="none" xmlns="http://www.w3.org/2000/svg">
<rect width="19" height="2.4" rx="1" fill="white"/>
<path d="M0 5.79993C0 5.24764 0.447715 4.79993 1 4.79993H18C18.5523 4.79993 19 5.24764 19 5.79993V6.19993C19 6.75221 18.5523 7.19993 18 7.19993H1C0.447715 7.19993 0 6.75221 0 6.19993V5.79993Z" fill="white"/>
<path d="M0 10.6001C0 10.0478 0.447715 9.6001 1 9.6001H18C18.5523 9.6001 19 10.0478 19 10.6001V11.0001C19 11.5524 18.5523 12.0001 18 12.0001H1C0.447715 12.0001 0 11.5524 0 11.0001V10.6001Z" fill="white"/>
</svg>
